<?xml version="1.0" encoding="UTF-8" standalone="no"?>
<svg xmlns="http://www.w3.org/2000/svg" width="534" height="84" version="1.1">
  <path id="big_O" style="fill:black;stroke:none" d="M 20.27344,8.6279998 C 17.825417,9.7800533 15.737419,11.460051 14.00944,13.668 C 12.281423,15.828047 10.937424,18.492044 9.97744,21.66 C 9.0654258,24.780038 8.6094263,28.284035 8.60944,32.172 C 8.6094263,35.388027 9.0654258,38.052025 9.97744,40.164 C 10.937424,42.228021 12.281423,43.884019 14.00944,45.132 C 15.737419,46.332017 17.825417,47.172016 20.27344,47.652 C 22.721412,48.132015 25.457409,48.372015 28.48144,48.372 C 31.505403,48.372015 34.241401,48.132015 36.68944,47.652 C 39.137396,47.172016 41.225394,46.332017 42.95344,45.132 C 44.68139,43.884019 46.001389,42.228021 46.91344,40.164 C 47.825387,38.052025 48.281387,35.388027 48.28144,32.172 C 48.281387,28.284035 47.825387,24.780038 46.91344,21.66 C 46.001389,18.492044 44.68139,15.828047 42.95344,13.668 C 41.225394,11.460051 39.137396,9.7800533 36.68944,8.6279998 C 34.241401,7.4280557 31.505403,6.8280563 28.48144,6.8279998 C 25.457409,6.8280563 22.721412,7.4280557 20.27344,8.6279998 z M 39.49744,2.3639998 C 42.953392,3.8520592 45.953389,6.0120571 48.49744,8.8439998 C 51.041384,11.628051 53.057382,14.988048 54.54544,18.924 C 56.033379,22.86004 56.777378,27.276036 56.77744,32.172 C 56.777378,37.068026 56.033379,41.484021 54.54544,45.42 C 53.057382,49.356014 51.041384,52.74001 48.49744,55.572 C 45.953389,58.356005 42.953392,60.516002 39.49744,62.052 C 36.089399,63.539999 32.417402,64.283999 28.48144,64.284 C 24.54541,64.283999 20.849414,63.539999 17.39344,62.052 C 13.985421,60.516002 10.985424,58.356005 8.39344,55.572 C 5.849429,52.78801 3.8334311,49.428013 2.34544,45.492 C 0.905434,41.508021 0.18543472,37.068026 0.18543998,32.172 C 0.18543472,27.276036 0.905434,22.86004 2.34544,18.924 C 3.8334311,14.988048 5.849429,11.628051 8.39344,8.8439998 C 10.985424,6.0120571 13.985421,3.8520592 17.39344,2.3639998 C 20.849414,0.82806225 24.54541,0.06006302 28.48144,0.0599998 C 32.417402,0.06006302 36.089399,0.82806225 39.49744,2.3639998 z" />
  <path id="small_p" style="fill:black;stroke:none" d="M 97.14694,32.172 C 95.178907,29.484033 92.466909,28.140035 89.01094,28.14 C 85.554916,28.140035 82.866919,29.484033 80.94694,32.172 C 79.026923,34.812028 78.066924,38.532024 78.06694,43.332 C 78.066924,45.732017 78.330923,47.652015 78.85894,49.092 C 79.386922,50.532012 80.130922,51.660011 81.09094,52.476 C 82.09892,53.24401 83.298919,53.772009 84.69094,54.06 C 86.082916,54.300009 87.642914,54.420008 89.37094,54.42 C 91.098911,54.420008 92.610909,54.300009 93.90694,54.06 C 95.250907,53.772009 96.378905,53.24401 97.29094,52.476 C 98.202904,51.660011 98.898903,50.532012 99.37894,49.092 C 99.858902,47.652015 100.0989,45.732017 100.09894,43.332 C 100.0989,38.532024 99.114903,34.812028 97.14694,32.172 z M 73.45894,78.252 L 68.85094,78.252 C 67.602934,78.251985 67.050935,77.627985 67.19494,76.38 L 70.00294,54.42 L 70.07494,26.268 C 70.074932,25.068038 70.674931,24.468038 71.87494,24.468 L 74.61094,24.468 C 75.954926,24.468038 76.482925,25.116038 76.19494,26.412 L 76.19494,26.628 C 75.810926,28.308035 76.242926,28.500034 77.49094,27.204 C 80.034922,24.372039 83.562918,22.95604 88.07494,22.956 C 90.426911,22.95604 92.634909,23.460039 94.69894,24.468 C 96.762905,25.428037 98.538903,26.820036 100.02694,28.644 C 101.5629,30.468032 102.7629,32.65203 103.62694,35.196 C 104.4909,37.740025 104.9229,40.548022 104.92294,43.62 C 104.9229,47.316016 104.5149,50.484012 103.69894,53.124 C 102.8829,55.716007 101.7309,57.852005 100.24294,59.532 C 98.754903,61.164002 96.978905,62.364001 94.91494,63.132 C 92.850909,63.899999 90.570911,64.283999 88.07494,64.284 C 87.594914,64.283999 86.922915,64.259999 86.05894,64.212 C 85.194917,64.211999 84.282918,64.115999 83.32294,63.924 C 82.362919,63.779999 81.40292,63.515999 80.44294,63.132 C 79.482922,62.7 78.666923,62.124001 77.99494,61.404 C 77.466924,60.780002 77.034925,60.516002 76.69894,60.612 C 76.362925,60.708002 76.170926,61.164002 76.12294,61.98 L 75.25894,76.524 C 75.162927,77.675985 74.562927,78.251985 73.45894,78.252 z" />
  <path id="small_e1" style="fill:black;stroke:none" d="M 144.87731,36.924 C 145.11728,36.540026 145.18928,36.060027 145.09331,35.484 C 144.61328,32.74803 143.38928,30.588032 141.42131,29.004 C 139.50129,27.372036 137.10129,26.556036 134.22131,26.556 C 132.63729,26.556036 131.17329,26.796036 129.82931,27.276 C 128.4853,27.708035 127.2853,28.332035 126.22931,29.148 C 125.2213,29.964033 124.3813,30.924032 123.70931,32.028 C 123.0853,33.13203 122.7013,34.332029 122.55731,35.628 C 122.4133,36.876026 122.9653,37.500025 124.21331,37.5 L 143.58131,37.428 C 144.20528,37.428025 144.63728,37.260026 144.87731,36.924 z M 148.47731,42.756 L 124.21331,42.756 C 123.0613,42.75602 122.4853,43.35602 122.48531,44.556 C 122.4853,46.668016 122.7013,48.372015 123.13331,49.668 C 123.6133,50.916012 124.3573,51.900011 125.36531,52.62 C 126.3733,53.34001 127.6693,53.820009 129.25331,54.06 C 130.88529,54.300009 132.87729,54.420008 135.22931,54.42 C 137.38929,54.420008 139.59729,54.372009 141.85331,54.276 C 144.10928,54.180009 145.98128,53.940009 147.46931,53.556 C 148.04528,53.412009 148.52528,53.436009 148.90931,53.628 C 149.29328,53.772009 149.48528,54.180009 149.48531,54.852 L 149.55731,60.108 C 149.55728,61.116002 149.12528,61.788001 148.26131,62.124 C 147.25328,62.652 146.26928,63.06 145.30931,63.348 C 144.39728,63.683999 143.41328,63.923999 142.35731,64.068 C 141.34928,64.211999 140.24528,64.283999 139.04531,64.284 C 137.84529,64.331999 136.50129,64.331999 135.01331,64.284 C 128.1973,64.091999 123.1813,62.388 119.96531,59.172 C 116.79731,55.908007 115.26131,51.108012 115.35731,44.772 C 115.40531,41.556021 115.86131,38.604024 116.72531,35.916 C 117.58931,33.22803 118.81331,30.924032 120.39731,29.004 C 122.0293,27.084036 123.9973,25.596037 126.30131,24.54 C 128.6053,23.484039 131.24529,22.95604 134.22131,22.956 C 136.18929,22.95604 138.13329,23.34004 140.05331,24.108 C 141.97328,24.828038 143.67728,25.932037 145.16531,27.42 C 146.70128,28.860034 147.92528,30.660032 148.83731,32.82 C 149.74928,34.980028 150.20527,37.476025 150.20531,40.308 L 150.20531,40.956 C 150.20527,42.156021 149.62928,42.75602 148.47731,42.756 z" />
  <path id="small_n" style="fill:black;stroke:none" d="M 195.63056,63.276 L 188.57456,63.276 C 187.37453,63.276 186.79853,62.676 186.84656,61.476 L 188.14256,39.372 C 188.57453,31.932031 185.91053,28.212035 180.15056,28.212 C 176.11854,28.212035 173.07055,29.316034 171.00656,31.524 C 168.99055,33.732029 168.15055,36.780026 168.48656,40.668 L 170.21456,61.476 C 170.26255,62.676 169.68655,63.276 168.48656,63.276 L 162.36656,63.276 C 161.21456,63.276 160.63856,62.676 160.63856,61.476 L 161.57456,25.26 C 161.57456,24.108039 162.17456,23.532039 163.37456,23.532 L 166.39856,23.532 C 167.55055,23.532039 168.12655,24.132039 168.12656,25.332 L 168.12656,25.62 C 168.12655,26.388036 168.31855,26.868036 168.70256,27.06 C 169.13455,27.252036 169.63855,27.132036 170.21456,26.7 C 171.60655,25.740037 173.19055,24.876038 174.96656,24.108 C 176.74254,23.34004 178.71054,22.95604 180.87056,22.956 C 185.38253,22.95604 188.71853,24.348039 190.87856,27.132 C 193.03853,29.868033 194.40653,33.996029 194.98256,39.516 L 197.35856,61.476 C 197.50252,62.676 196.92652,63.276 195.63056,63.276 z" />
  <path id="big_D" style="fill:black;stroke:none" d="M 216.74456,10.284 L 216.74456,46.572 C 216.74455,47.916015 217.41655,48.588014 218.76056,48.588 L 226.82456,48.588 C 229.89654,48.588014 232.89653,48.420014 235.82456,48.084 C 238.75253,47.700015 241.34453,46.932016 243.60056,45.78 C 245.90452,44.628018 247.75252,42.99602 249.14456,40.884 C 250.53652,38.724024 251.23252,35.844027 251.23256,32.244 C 251.23252,28.596034 250.75252,25.284038 249.79256,22.308 C 248.83252,19.332044 247.34452,16.812046 245.32856,14.748 C 243.36052,12.63605 240.84053,11.028052 237.76856,9.9239998 C 234.69653,8.7720543 231.04854,8.1960549 226.82456,8.1959998 L 218.76056,8.1959998 C 217.41655,8.1960549 216.74455,8.8920542 216.74456,10.284 z M 209.90456,1.3559998 L 225.09656,1.3559998 C 230.04054,1.3560617 234.62453,1.9800611 238.84856,3.2279998 C 243.12052,4.4280587 246.81652,6.3000568 249.93656,8.8439998 C 253.05651,11.388051 255.50451,14.604048 257.28056,18.492 C 259.05651,22.332041 259.94451,26.916036 259.94456,32.244 C 259.94451,37.572025 259.05651,42.180021 257.28056,46.068 C 255.50451,49.956013 253.03251,53.19601 249.86456,55.788 C 246.74452,58.332005 243.04852,60.228003 238.77656,61.476 C 234.55253,62.676 229.99254,63.276 225.09656,63.276 L 209.90456,63.276 C 208.56056,63.276 207.88856,62.604 207.88856,61.26 L 207.88856,3.3719998 C 207.88856,2.0280611 208.56056,1.3560617 209.90456,1.3559998 z" />
  <path id="small_y" style="fill:black;stroke:none" d="M 289.18669,75.516 C 287.79467,77.771985 286.37867,79.523983 284.93869,80.772 C 283.54667,82.019981 282.10667,82.85998 280.61869,83.292 C 279.17868,83.723979 277.73868,83.939979 276.29869,83.94 L 272.19469,83.94 C 271.04268,83.939979 270.46668,83.36398 270.46669,82.212 L 270.46669,76.812 C 270.46668,75.659987 271.04268,75.083988 272.19469,75.084 L 274.93069,75.084 C 276.17868,75.083988 277.45068,74.651988 278.74669,73.788 C 280.04268,72.92399 281.26667,71.819991 282.41869,70.476 C 283.57067,69.131994 284.60267,67.643995 285.51469,66.012 C 286.47467,64.379998 287.21867,62.772 287.74669,61.188 C 287.84267,60.852002 287.91467,60.492002 287.96269,60.108 C 288.05867,59.676003 287.98667,59.244004 287.74669,58.812 L 272.41069,25.98 C 272.12268,25.356038 272.09868,24.852038 272.33869,24.468 C 272.62668,24.084039 273.10668,23.892039 273.77869,23.892 L 276.94669,23.892 C 277.81068,23.892039 278.50668,24.300039 279.03469,25.116 L 290.91469,44.628 C 291.29866,45.252018 291.70666,45.564017 292.13869,45.564 C 292.61866,45.516017 293.02666,45.156018 293.36269,44.484 L 302.36269,25.188 C 302.79465,24.324039 303.46665,23.892039 304.37869,23.892 L 307.76269,23.892 C 308.43465,23.892039 308.89065,24.084039 309.13069,24.468 C 309.41865,24.804038 309.44265,25.284038 309.20269,25.908 L 293.43469,66.804 C 292.04266,70.403992 290.62666,73.30799 289.18669,75.516 z" />
  <path id="small_s" style="fill:black;stroke:none" d="M 347.25806,29.652 C 346.92203,29.844033 346.44203,29.820033 345.81806,29.58 C 342.79404,28.332035 339.53004,27.708035 336.02606,27.708 C 332.71405,27.708035 330.21805,28.260035 328.53806,29.364 C 326.85805,30.420032 326.01805,31.956031 326.01806,33.972 C 326.01805,34.836028 326.16205,35.604027 326.45006,36.276 C 326.73805,36.900026 327.21805,37.476025 327.89006,38.004 C 328.61005,38.484024 329.54605,38.940024 330.69806,39.372 C 331.85005,39.756023 333.29005,40.140023 335.01806,40.524 L 337.25006,41.028 C 339.55404,41.556021 341.49804,42.156021 343.08206,42.828 C 344.71403,43.452019 346.03403,44.220019 347.04206,45.132 C 348.05003,46.044017 348.77003,47.100016 349.20206,48.3 C 349.68203,49.500013 349.92203,50.916012 349.92206,52.548 C 349.92203,56.292007 348.48203,59.196004 345.60206,61.26 C 342.72204,63.276 338.73804,64.283999 333.65006,64.284 C 329.76205,64.283999 325.65805,63.611999 321.33806,62.268 C 320.33006,61.980001 319.82606,61.332002 319.82606,60.324 L 319.82606,53.268 C 319.82606,52.59601 320.01806,52.140011 320.40206,51.9 C 320.78606,51.660011 321.29006,51.684011 321.91406,51.972 C 326.09005,53.796009 330.05005,54.708008 333.79406,54.708 C 335.90604,54.708008 337.46604,54.324009 338.47406,53.556 C 339.48204,52.78801 340.01004,51.924011 340.05806,50.964 C 340.10604,49.956013 339.69804,48.996014 338.83406,48.084 C 337.97004,47.124016 336.72204,46.452016 335.09006,46.068 L 331.49006,45.276 C 327.45805,44.364019 324.55405,43.11602 322.77806,41.532 C 321.00206,39.948023 320.11406,37.620025 320.11406,34.548 C 320.11406,30.804032 321.41006,27.948035 324.00206,25.98 C 326.59405,23.964039 330.33805,22.95604 335.23406,22.956 C 339.55404,22.95604 343.27404,23.484039 346.39406,24.54 C 347.35403,24.924038 347.83403,25.596037 347.83406,26.556 L 347.83406,28.284 C 347.83403,28.956034 347.64203,29.412033 347.25806,29.652 z" />
  <path id="small_l" style="fill:black;stroke:none" d="M 361.54669,47.508 C 361.73868,42.94802 361.90668,38.580024 362.05069,34.404 C 362.24268,30.180033 362.26668,26.172037 362.12269,22.38 C 362.02668,18.588044 361.49868,15.084048 360.53869,11.868 C 360.34668,11.292052 360.46668,10.860052 360.89869,10.572 C 361.33068,10.284053 361.81068,10.140053 362.33869,10.14 L 366.08269,10.14 C 366.65868,10.140053 367.04268,10.308053 367.23469,10.644 C 367.47468,10.932052 367.64268,11.364052 367.73869,11.94 C 368.07468,14.532048 368.24268,17.532045 368.24269,20.94 C 368.29068,24.348039 368.29068,27.876035 368.24269,31.524 C 368.19468,35.172028 368.21868,38.844024 368.31469,42.54 C 368.45868,46.188017 368.81868,49.596013 369.39469,52.764 C 369.49068,53.388009 369.65868,53.844009 369.89869,54.132 C 370.13868,54.420008 370.54667,54.564008 371.12269,54.564 L 375.51469,54.564 C 376.71467,54.564008 377.31467,55.164008 377.31469,56.364 L 377.31469,61.548 C 377.31467,62.7 376.71467,63.276 375.51469,63.276 L 363.63469,63.276 C 362.53068,63.276 361.95468,62.676 361.90669,61.476 C 361.52268,56.724006 361.40268,52.068011 361.54669,47.508 z" />
  <path id="small_e2" style="fill:black;stroke:none" d="M 417.26794,36.924 C 417.5079,36.540026 417.5799,36.060027 417.48394,35.484 C 417.00391,32.74803 415.77991,30.588032 413.81194,29.004 C 411.89191,27.372036 409.49191,26.556036 406.61194,26.556 C 405.02792,26.556036 403.56392,26.796036 402.21994,27.276 C 400.87592,27.708035 399.67592,28.332035 398.61994,29.148 C 397.61192,29.964033 396.77193,30.924032 396.09994,32.028 C 395.47593,33.13203 395.09193,34.332029 394.94794,35.628 C 394.80393,36.876026 395.35593,37.500025 396.60394,37.5 L 415.97194,37.428 C 416.59591,37.428025 417.02791,37.260026 417.26794,36.924 z M 420.86794,42.756 L 396.60394,42.756 C 395.45193,42.75602 394.87593,43.35602 394.87594,44.556 C 394.87593,46.668016 395.09193,48.372015 395.52394,49.668 C 396.00393,50.916012 396.74793,51.900011 397.75594,52.62 C 398.76392,53.34001 400.05992,53.820009 401.64394,54.06 C 403.27592,54.300009 405.26792,54.420008 407.61994,54.42 C 409.77991,54.420008 411.98791,54.372009 414.24394,54.276 C 416.49991,54.180009 418.3719,53.940009 419.85994,53.556 C 420.4359,53.412009 420.9159,53.436009 421.29994,53.628 C 421.6839,53.772009 421.8759,54.180009 421.87594,54.852 L 421.94794,60.108 C 421.9479,61.116002 421.5159,61.788001 420.65194,62.124 C 419.6439,62.652 418.6599,63.06 417.69994,63.348 C 416.78791,63.683999 415.80391,63.923999 414.74794,64.068 C 413.73991,64.211999 412.63591,64.283999 411.43594,64.284 C 410.23591,64.331999 408.89191,64.331999 407.40394,64.284 C 400.58792,64.091999 395.57193,62.388 392.35594,59.172 C 389.18793,55.908007 387.65193,51.108012 387.74794,44.772 C 387.79593,41.556021 388.25193,38.604024 389.11594,35.916 C 389.97993,33.22803 391.20393,30.924032 392.78794,29.004 C 394.41993,27.084036 396.38793,25.596037 398.69194,24.54 C 400.99592,23.484039 403.63592,22.95604 406.61194,22.956 C 408.57991,22.95604 410.52391,23.34004 412.44394,24.108 C 414.36391,24.828038 416.06791,25.932037 417.55594,27.42 C 419.0919,28.860034 420.3159,30.660032 421.22794,32.82 C 422.1399,34.980028 422.5959,37.476025 422.59594,40.308 L 422.59594,40.956 C 422.5959,42.156021 422.0199,42.75602 420.86794,42.756 z" />
  <path id="small_x" style="fill:black;stroke:none" d="M 469.46119,24.54 C 469.70115,24.972038 469.62915,25.476037 469.24519,26.052 L 457.58119,43.548 C 457.00516,44.364019 457.05316,45.180018 457.72519,45.996 L 470.97319,61.116 C 471.50115,61.692001 471.64515,62.196001 471.40519,62.628 C 471.21315,63.06 470.73315,63.276 469.96519,63.276 L 462.98119,63.276 C 462.11716,63.276 461.39716,62.892 460.82119,62.124 L 453.83719,52.836 C 453.06916,51.780011 452.25317,51.756011 451.38919,52.764 L 443.75719,62.196 C 443.18117,62.916 442.46118,63.276 441.59719,63.276 L 434.61319,63.276 C 433.84518,63.276 433.34118,63.06 433.10119,62.628 C 432.86118,62.196001 433.00518,61.692001 433.53319,61.116 L 447.14119,45.636 C 447.81317,44.868018 447.86117,44.052019 447.28519,43.188 L 435.90919,26.052 C 435.52518,25.428037 435.42918,24.924038 435.62119,24.54 C 435.86118,24.108039 436.34118,23.892039 437.06119,23.892 L 440.01319,23.892 C 440.87718,23.892039 441.59718,24.276039 442.17319,25.044 L 451.02919,38.22 C 451.41317,38.748024 451.82117,39.036024 452.25319,39.084 C 452.68517,39.084024 453.09316,38.820024 453.47719,38.292 L 463.26919,24.972 C 463.74915,24.252039 464.44515,23.892039 465.35719,23.892 L 468.02119,23.892 C 468.74115,23.892039 469.22115,24.108039 469.46119,24.54 z" />
  <path id="small_i" style="fill:black;stroke:none" d="M 483.11869,53.268 C 483.50268,50.484012 483.79068,47.676015 483.98269,44.844 C 484.22268,42.012021 484.36668,39.060024 484.41469,35.988 C 484.46268,32.91603 484.39068,29.532033 484.19869,25.836 C 484.15068,25.356038 484.29468,24.972038 484.63069,24.684 C 484.96668,24.396038 485.42268,24.252039 485.99869,24.252 L 489.02269,24.252 C 489.59868,24.252039 490.05468,24.420038 490.39069,24.756 C 490.72668,25.044038 490.84668,25.476037 490.75069,26.052 C 490.46268,28.788034 490.22268,31.740031 490.03069,34.908 C 489.88668,38.028025 489.83868,41.172022 489.88669,44.34 C 489.98268,47.508015 490.19868,50.604012 490.53469,53.628 C 490.87068,56.604006 491.37468,59.316004 492.04669,61.764 C 492.23867,62.388 492.14267,62.868 491.75869,63.204 C 491.42268,63.491999 490.96668,63.635999 490.39069,63.636 L 483.69469,63.636 C 482.39868,63.635999 481.82268,63.036 481.96669,61.836 C 482.39868,58.860004 482.78268,56.004007 483.11869,53.268 z M 484.91869,8.6999998 L 489.67069,8.6279998 C 490.39068,8.6280545 490.75068,8.9880541 490.75069,9.7079998 L 490.89469,15.036 C 490.89468,15.756047 490.53468,16.116047 489.81469,16.116 L 484.77469,16.116 C 484.05468,16.116047 483.69468,15.756047 483.69469,15.036 L 483.83869,9.7799998 C 483.83868,9.060054 484.19868,8.7000544 484.91869,8.6999998 z" />
  <path id="small_c" style="fill:black;stroke:none" d="M 533.23856,30.156 C 532.85453,30.348033 532.35053,30.300033 531.72656,30.012 C 528.75053,28.716034 525.75054,28.068035 522.72656,28.068 C 518.50254,28.068035 515.28655,29.460033 513.07856,32.244 C 510.91855,35.028028 509.83855,38.820024 509.83856,43.62 C 510.17455,47.076016 511.30255,49.692013 513.22256,51.468 C 515.14255,53.24401 518.21454,54.228009 522.43856,54.42 C 523.97454,54.516008 525.51054,54.348009 527.04656,53.916 C 528.58253,53.484009 530.11853,53.00401 531.65456,52.476 C 532.99853,51.996011 533.67053,52.42801 533.67056,53.772 L 533.74256,60.252 C 533.74253,61.308002 533.31053,62.004001 532.44656,62.34 C 529.18253,63.635999 525.70254,64.283999 522.00656,64.284 C 519.03054,64.283999 516.34255,63.803999 513.94256,62.844 C 511.59055,61.884001 509.57455,60.516002 507.89456,58.74 C 506.21456,56.916006 504.91856,54.732008 504.00656,52.188 C 503.09456,49.644013 502.63856,46.788016 502.63856,43.62 C 502.63856,40.404022 503.09456,37.524025 504.00656,34.98 C 504.91856,32.43603 506.21456,30.276033 507.89456,28.5 C 509.62255,26.724036 511.71055,25.356038 514.15856,24.396 C 516.60655,23.436039 519.36654,22.95604 522.43856,22.956 C 526.08654,22.95604 529.42253,23.556039 532.44656,24.756 C 533.35853,25.092038 533.81453,25.764037 533.81456,26.772 L 533.81456,28.788 C 533.81453,29.460033 533.62253,29.916033 533.23856,30.156 z" />
</svg>
