<?xml version="1.0" encoding="UTF-8" standalone="no"?>
<svg
   xml:space="preserve"
   width="198"
   height="234"
   overflow="visible"
   version="1.1"
   id="svg71"
   sodipodi:docname="OpenDyslexic_specimen.svg"
   inkscape:version="1.4.2 (f4327f4, 2025-05-13)"
   xmlns:inkscape="http://www.inkscape.org/namespaces/inkscape"
   xmlns:sodipodi="http://sodipodi.sourceforge.net/DTD/sodipodi-0.dtd"
   xmlns="http://www.w3.org/2000/svg"
   xmlns:svg="http://www.w3.org/2000/svg"><defs
   id="defs71" /><sodipodi:namedview
   id="namedview71"
   pagecolor="#ffffff"
   bordercolor="#000000"
   borderopacity="0.25"
   inkscape:showpageshadow="2"
   inkscape:pageopacity="0.0"
   inkscape:pagecheckerboard="0"
   inkscape:deskcolor="#d1d1d1"
   inkscape:zoom="1.6987178"
   inkscape:cx="64.754723"
   inkscape:cy="93.894348"
   inkscape:window-width="1920"
   inkscape:window-height="991"
   inkscape:window-x="-9"
   inkscape:window-y="-9"
   inkscape:window-maximized="1"
   inkscape:current-layer="svg71" />
  <path
   fill="#FFF"
   fill-rule="evenodd"
   d="M0 0h198v234H0z"
   clip-rule="evenodd"
   id="path1" />
  <path
   fill="#DFDFE1"
   fill-rule="evenodd"
   d="M0 0h198v156H0V0zm0 0"
   clip-rule="evenodd"
   id="path2"
   style="fill:#ffffff;fill-opacity:1" /><path
   style="font-size:20px;line-height:1;font-family:OpenDyslexic;-inkscape-font-specification:OpenDyslexic;letter-spacing:-4px;word-spacing:-5px;stroke-width:4.8;stroke-linejoin:round;stroke-dasharray:4.8, 4.8;paint-order:stroke fill markers"
   d="m 16.042028,74.929981 h 3.02 l 0.86,-2.72 h 7.42 l 0.64,2.72 h 3.18 l -6.48,-17 h -2.14 z m 4.54,-5.34 3,-8.9 3.06,8.9 z m 17.919994,5.6 c 1.6,0 3.04,-0.62 3.8,-1.92 v 1.64 h 2 l -1.14,-10.94 h -1.42 l 0.04,1.16 c -0.72,-1.16 -1.82,-1.6 -3.4,-1.38 -1.14,0.16 -3.46,0.78 -4.2,4.92 -0.76,4.24 1.18,6.52 4.32,6.52 z m -0.24,-3.04 c -2.36,0 -2.84,-1.18 -2.6,-2.96 0.38,-2.76 2.02,-3.76 3.14,-3.76 1.34,0 2.82,0.46 2.82,3.5 0,0.98 -0.14,3.22 -3.36,3.22 z m 16.839996,2.76 h 5.92 c 3.7,0 5.88,-0.68 5.98,-4.62 0.1,-3.34 -1.08,-4.72 -4,-5.18 1.58,-0.26 2.68,-1.34 2.56,-3.3 -0.14,-2.38 -1.92,-3.84 -5.32,-3.84 h -5.14 z m 5.8,-3.28 h -3.56 v -5.52 h 3.56 c 1.6,0 2.4,0.44 2.66,0.74 0.58,0.6 0.98,0.82 0.98,1.98 0,1.98 -1.24,2.8 -3.64,2.8 z m -0.26,-7.54 h -3.3 v -4.42 h 3.3 c 2.16,0 3,0.94 3,2.38 0,1.4 -0.84,2.04 -3,2.04 z m 14.980008,11.1 c 2.66,0 5.3,-2.7 5.3,-6.14 0,-2.88 -2.34,-5.34 -5.3,-5.26 -2.16,0.06 -3.08,2.06 -3.08,0.56 v -6.44 h -2.68 c 0.6,7.26 0.7,14.12 1.12,15.02 0.52,1.44 1.78,2.26 4.64,2.26 z m 0.42,-3.2 c -2.6,0 -3.04,-0.82 -3.04,-2.86 0,-2.12 1.14,-3.58 3.04,-3.58 1.92,0 2.92,1.52 2.92,3.5 0,1.64 -1.32,2.82 -2.92,2.94 z m 27.819984,-11.52 0.32,-2.16 c -1.56,-0.24 -2.2,-0.6 -4.18,-0.34 -5.519997,0.68 -7.499997,4.6 -8.039997,7.46 -0.98,5.12 1,9.32 5.3,9.74 1.9,0.18 5.579997,-0.12 6.839997,-0.5 l -0.04,-4.68 c -1.1,0.34 -1.78,0.78 -3.7,0.86 -3.739997,0.14 -6.479997,-1.64 -5.779997,-5.42 0.54,-2.96 3.2,-5.18 5.559997,-5.34 0.96,-0.06 2.44,0.16 3.72,0.38 z m 10.48001,5.1 v -1.72 c -0.42,-0.14 -1.54,-0.26 -2.5,-0.24 -3.38,0.08 -4.8,1.88 -4.8,5.84 0,3.52 1.26,5.32 5.4,5.6 1.22,0.08 2.48,-0.06 3.42,-0.62 l -1.88,-2.04 c -2.1,1.04 -4.72,-0.34 -4.92,-2.94 0,-2.98 1.24,-4.16 3.18,-4.18 0.56,0 1.46,0.1 2.1,0.3 z"
   id="text2"
   aria-label="Aa Bb Cc" /><path
   fill="#F0C753"
   fill-rule="evenodd"
   d="M0 156h198v78H0z"
   clip-rule="evenodd"
   id="path3"
   style="fill:#1a1a1a;fill-opacity:1" /><g
   id="text8"
   style="font-size:13.3333px;line-height:1.25;font-family:OpenDyslexic;-inkscape-font-specification:OpenDyslexic;text-align:end;letter-spacing:2.5px;word-spacing:0px;text-anchor:end;fill:#ffffff;stroke-width:4.8;stroke-linejoin:round;stroke-dasharray:4.8, 4.8;paint-order:stroke fill markers"
   aria-label="abcdefghijklm&#10;nopqrstuvwxyz"><path
     style="text-align:start;text-anchor:start"
     d="m 14.44002,178.4826 c 1.066664,0 2.026662,-0.41334 2.533327,-1.28 v 1.09333 h 1.33333 l -0.759998,-7.29332 h -0.946664 l 0.02667,0.77334 c -0.479998,-0.77334 -1.21333,-1.06667 -2.266661,-0.92 -0.759998,0.10666 -2.30666,0.52 -2.799992,3.27999 -0.506666,2.82666 0.786664,4.34666 2.879992,4.34666 z m -0.159999,-2.02667 c -1.57333,0 -1.893329,-0.78666 -1.733329,-1.97332 0.253332,-1.84 1.346663,-2.50667 2.093328,-2.50667 0.893331,0 1.879995,0.30667 1.879995,2.33333 0,0.65333 -0.09333,2.14666 -2.239994,2.14666 z m 14.446632,2.02667 c 1.773329,0 3.533325,-1.8 3.533325,-4.09333 0,-1.91999 -1.559996,-3.55999 -3.533325,-3.50666 -1.439996,0.04 -2.053328,1.37333 -2.053328,0.37334 v -4.29333 h -1.786662 c 0.399999,4.83999 0.466666,9.41331 0.746665,10.01331 0.346666,0.96 1.186664,1.50667 3.093325,1.50667 z m 0.28,-2.13333 c -1.733329,0 -2.026662,-0.54667 -2.026662,-1.90666 0,-1.41333 0.759998,-2.38667 2.026662,-2.38667 1.279996,0 1.946661,1.01334 1.946661,2.33333 0,1.09333 -0.879997,1.88 -1.946661,1.96 z m 14.699959,-4.27999 v -1.14667 c -0.279999,-0.0933 -1.026664,-0.17333 -1.666662,-0.16 -2.253328,0.0533 -3.199992,1.25333 -3.199992,3.89333 0,2.34666 0.839998,3.54666 3.599991,3.73332 0.813331,0.0533 1.653329,-0.04 2.279994,-0.41333 l -1.25333,-1.36 c -1.399997,0.69333 -3.146659,-0.22666 -3.279992,-1.95999 0,-1.98666 0.826665,-2.77333 2.119995,-2.78666 0.373332,0 0.973331,0.0667 1.399996,0.2 z m 13.326637,-0.04 c -0.493332,-0.86667 -1.266663,-1.48 -2.333327,-1.42666 -1.759996,0.0933 -3.266659,1.94666 -3.386658,4.05332 -0.133333,2.29333 1.29333,3.78666 3.386658,3.82666 1.066664,0.0267 1.839995,-0.28 2.333327,-1.14667 v 0.96 l 1.266664,0.0267 -0.16,-3.16 0.319999,-8.19998 h -1.199997 z m -4.453322,2.49333 c 0,-1.44 0.759998,-2.50667 2.039995,-2.50667 1.266663,0 1.879995,0.97334 1.879995,2.41333 0,1.61333 -0.919998,1.88 -1.919995,1.88 -1.266664,0 -1.999995,-0.52 -1.999995,-1.78666 z m 13.673308,-0.0533 5.773319,-0.37333 c -0.426665,-2.41333 -1.773329,-3.41333 -3.266658,-3.53332 -2.199995,0 -3.626658,1.77332 -3.719991,4.15998 0,2.30667 1.599996,3.76 3.91999,3.76 0.946665,0 1.813329,-0.18667 2.679994,-0.56 v -1.65333 c -1.026665,0.44 -1.65333,0.54666 -2.639994,0.44 -1.879995,-0.2 -2.74666,-0.97333 -2.74666,-2.24 z m 4.439989,-1.43999 -4.266656,0.41333 c 0,-0.88 0.973331,-1.89333 2.333328,-1.98666 1.386663,-0.0933 1.799995,0.75999 1.933328,1.57333 z m 8.793318,5.26665 h 1.733329 l -0.2,-6.10665 h 1.906662 v -1.18667 l -2.066661,0.0267 c -0.12,-0.52 -0.319999,-2.33333 0.866664,-2.33333 h 1.079998 v -0.99999 H 81.73987 c -1.37333,0 -2.053329,0.45333 -2.053329,3.30665 h -1.079997 v 1.18667 h 1.079997 z m 12.966625,3.47999 c 2.279994,0 3.293325,-1.45333 3.426658,-4.39999 l 0.279999,-6.37332 h -1.199997 l -0.279999,0.93334 c -0.733332,-0.54667 -1.119997,-1.10667 -2.186661,-1.10667 -1.786663,0 -2.986659,1.48 -2.986659,3.73333 0,2.25332 1.199996,3.86665 2.986659,3.86665 0.799998,0 1.466663,-0.36 2.133328,-0.96 l -0.16,0.61334 c -0.306666,0.86666 -1.079997,1.73333 -2.119995,1.86666 -0.706665,0.0933 -1.386663,-0.17333 -2.093328,-0.56 l -0.493332,1.76 c 0.826665,0.41333 1.853329,0.62666 2.693327,0.62666 z m -0.28,-5.42665 c -1.29333,0 -1.693329,-0.34667 -1.573329,-1.85333 0.09333,-1.17333 0.386666,-2.33333 1.666663,-2.33333 1.29333,0 2.039994,1.16 2.039994,2.46666 0,1.37333 -0.839997,1.72 -2.133328,1.72 z m 17.166643,-2.45333 c -0.16,-2.55999 -1.41333,-2.82666 -2.54666,-2.90666 -1.14667,-0.08 -1.42667,0.10667 -2.34667,0.82667 l 0.30667,-4.85333 h -1.2 l -0.81333,11.33331 h 1.97333 c -0.72,-4.86666 0.22667,-5.94665 1.81333,-5.94665 1.85333,0 1.97333,1.61333 1.25333,5.94665 h 1.83999 z m 6.95332,4.39999 h 1.76 c -0.4,-2.55999 -0.4,-5.14665 -0.30667,-7.34665 h -1.06666 c 0,2.95999 -0.21334,4.78666 -0.38667,7.34665 z m -0.2,-9.45331 h 2.2 l -0.32,-2.18666 h -1.41333 z m 11.52664,9.95997 c -0.36,1.21333 -1.61333,1.28 -2.27999,1.16 l -0.61333,1.25333 c 1.13333,0.22667 2.93332,-0.04 3.37332,-0.38666 0.46667,-0.36 0.68,-0.92 0.76,-2.34666 l 0.4,-7.61332 h -1.26666 c -0.14667,5.35999 -0.14667,7.14665 -0.37334,7.93331 z m -0.2,-9.6933 h 2.2 l -0.32,-2.18667 h -1.41333 z m 8.41999,9.18664 h 1.73333 l -0.14667,-3.17333 2.48,3.17333 h 2.73332 l -4.14665,-3.98666 2.30666,-2.94666 h -1.57333 l -1.8,2.25333 0.30667,-5.89332 h -1.33333 z m 13.29997,0 h 3.2 l -0.21334,-1.48 h -1.58666 c -0.13333,-3.23999 0.0667,-6.06665 0.42667,-9.26664 h -1.26667 c -0.54666,3.70666 -0.72,9.26664 -0.56,10.74664 z m 16.36665,-5.89332 c -0.36,-1.06666 -1.24,-1.62666 -2.30666,-1.62666 -0.93333,0 -1.8,0.46666 -2.34666,1.35999 l 0.13333,-1.13333 h -1.19999 l -0.86667,7.29332 h 1.66666 l 0.4,-4.15999 c 0.10667,-1.17333 0.84,-2.12 2.06666,-2.12 1.02667,0 1.68,1.24 1.45333,2.42667 l -0.74666,3.85332 h 1.65333 l 0.42666,-3.71999 c 0.17334,-1.48 0.69333,-2.48 1.94667,-2.48 1.01333,0 1.45332,0.65334 1.30666,2.04 l -0.45333,4.15999 h 1.79999 l -0.14666,-3.99999 c -0.08,-2.13333 -0.72,-3.51999 -2.37333,-3.51999 -1.02667,0 -1.81333,0.52 -2.41333,1.62666 z"
     id="path9" /><path
     style="text-align:start;text-anchor:start"
     d="m 17.946678,190.6559 c -0.133333,-1.92 -1.039997,-3.11999 -2.70666,-3.11999 -1.013331,0 -1.519996,0.43999 -2.146661,0.73333 l -0.226666,-0.58667 h -0.879998 l -0.533332,7.27998 h 1.973329 l -0.186667,-4.05332 c -0.05333,-1.2 0.399999,-2.23999 1.866662,-2.23999 1.066664,0 1.466663,0.61333 1.426663,1.90666 l -0.146666,4.38665 h 1.853329 z m 10.353321,4.47999 c 2.159995,0 3.479991,-1.56 3.479991,-3.81333 0,-2.34666 -1.319996,-3.82665 -3.479991,-3.82665 -2.173328,0 -3.479991,1.47999 -3.479991,3.82665 0,2.25333 1.306663,3.81333 3.479991,3.81333 z m 0,-1.98667 c -1.599996,0 -2.159994,-0.30666 -2.159994,-2.05332 0,-1.85333 0.826664,-2.42666 2.159994,-2.42666 1.33333,0 2.159995,0.57333 2.159995,2.42666 0,1.74666 -0.559999,2.05332 -2.159995,2.05332 z m 11.753298,0.72 c 0.359999,0.86667 1.266663,1.29333 2.333327,1.29333 2.106662,0 2.986659,-1.87999 2.986659,-3.97332 0,-2.19999 -1.21333,-3.54666 -2.986659,-3.59999 -1.066664,-0.0267 -1.839995,0.41333 -2.333327,1.28 l -0.24,-1 h -1.199996 c 0.319999,3.46666 0.306665,4.29332 0.119999,5.18665 l -1.079997,5.26666 1.719996,-0.10667 z m 4.146656,-2.93332 c 0.05333,1.41333 -0.306666,2.23999 -1.573329,2.23999 -1.266664,0 -2.226661,-0.82666 -2.226661,-2.23999 0,-1.41333 1.05333,-2.28 2.159994,-2.28 1.106664,0 1.586663,0.86667 1.639996,2.28 z m 13.046645,2.93332 -0.346666,4.07999 3.093326,-0.90666 0.346665,-1.6 -1.146663,0.4 -0.933331,0.26667 0.146666,-3.62666 0.466665,-4.81332 h -1.426663 v 1.33333 c -0.719998,-1.13333 -1.29333,-1.64 -2.573326,-1.46666 -1.759996,0.23999 -3.093326,1.47999 -3.093326,3.77332 0,2.29333 1.37333,3.74666 3.133325,3.83999 1.066664,0.0533 1.826662,-0.41333 2.333328,-1.28 z m -2.519994,-0.6 c -1.266663,0 -1.893328,-0.61333 -1.733329,-2.11999 0.16,-1.49333 0.853331,-2.61333 2.133328,-2.61333 1.266664,0 1.839996,1.12 1.679996,2.61333 -0.16,1.50666 -0.813331,2.11999 -2.079995,2.11999 z m 16.886636,-3.94665 -0.199999,-1.68 c -1.546663,0.08 -1.919996,0.28 -2.653327,0.84 v -0.78666 h -1.239997 c 0,3.03999 -0.06667,4.65332 -0.613332,7.26664 h 2.413328 c -0.386666,-2.18666 -0.306666,-3.03999 -0.306666,-3.81332 0,-1.29333 0.239999,-2.31999 2.599993,-1.82666 z m 11.686651,-0.88 0.613331,-0.8 c -0.666664,-0.14666 -1.466662,-0.32 -2.359994,-0.32 -2.30666,0 -2.773326,1.18667 -2.773326,2.16 0,1.74666 1.626663,2.14666 2.226661,2.23999 0.933331,0.18667 1.746662,0.45333 1.746662,0.88 0,0.76 -0.879997,0.70666 -1.346663,0.66666 -0.813331,-0.0667 -1.13333,-0.14666 -1.906662,-0.43999 l -1.306663,1.47999 c 0.586665,0.44 0.746665,0.84 3.186659,0.84 2.013328,0 3.039992,-0.41333 3.039992,-2.25333 0,-1.04 -0.386666,-1.59999 -2.58666,-2.27999 -1.159997,-0.36 -2.039995,-0.76 -2.053328,-1.18667 -0.01333,-0.59999 0.199999,-1.09333 1.919995,-1.09333 0.466665,0.0267 0.773331,0 1.599996,0.10667 z m 9.633323,6.51998 c 0.626665,0 2.973325,0 3.466658,-0.0267 l -0.253333,-1.70667 c -2.119995,-0.0533 -2.159995,-0.0267 -2.119995,-1.21333 l 0.133333,-3.45332 h 2.253328 l -0.24,-0.89333 h -1.986661 l 0.09333,-2.53333 -1.386663,0.8 -0.133333,1.73333 h -1.37333 l -0.386666,0.89333 h 1.706663 c -0.2,3.02666 -0.28,5.47999 -0.28,5.73332 0,0.0933 0.05333,0.66666 0.506666,0.66666 z m 12.899976,0.21334 c 0.77333,0 1.89333,-0.13334 2.34666,-1.33333 l -0.0533,1.11999 h 1.45333 l -0.26666,-7.46664 h -1.32 l -0.0933,3.39999 c -0.04,1.54666 -0.10667,1.90666 -1.8,1.91999 -1.55999,0.0133 -1.45333,-0.36 -1.55999,-1.81333 l -0.26667,-3.50665 h -1.28 l 0.28,4.58665 c 0.16,2.51999 0.92,3.09333 2.56,3.09333 z m 13.12662,-0.21334 h 2.45333 l 0.26667,-1.91999 2.39999,-5.37332 h -1.26666 l -2.56,5.34665 -2.82666,-5.34665 h -1.26666 l 2.42666,5.37332 z m 13.60664,0 h 1.61333 l 1.37333,-2.25332 1.32,2.25332 h 1.66666 l 1.90666,-7.29331 h -1.59999 l -1.09333,4.51999 -1.78667,-2.46666 h -0.82666 l -1.78666,2.46666 -1.09333,-4.51999 h -1.6 z m 14.45999,0 h 1.98666 l 2.03999,-2.74666 1.77333,2.74666 h 2 l -2.84,-4.01332 2.56,-3.45332 h -1.48 l -1.88,2.33332 -1.65332,-2.33332 h -1.54667 l 2.25333,3.47999 z m 14.77997,3.43999 h 1.09333 c 1.06666,0 3.25332,-0.86666 3.74666,-2.98665 l 1.85333,-7.91998 h -1.28 l -1.56,5.07998 -2.98666,-5.07998 h -1.26666 l 3.30666,6.75998 c 0.66666,1.37333 -1.04,2.42666 -2.06666,2.42666 h -0.84 z m 13.27329,-3.43999 h 6.67999 l -0.76,-1.61333 h -3.53333 l 4.42666,-4.65332 -0.17333,-1.19999 h -5.51999 v 1.27999 h 3.87999 l -4.67999,4.43999 z"
     id="path10" /></g>
  
  
  
  
  
  
  
  
  
  
  
  
  
  
  
  
  
  
  
  
  
  
  
  
  
  
  
  
  
  
  
  
  
  
  
  
  
  
  
  
  
  
  
  
  
  
  
  
  
  
  
  
  
  
  
  
  
  
  
  
  
  
  
  
  
  
  
  
  
<path
   style="font-size:24px;line-height:1;font-family:OpenDyslexic;-inkscape-font-specification:OpenDyslexic;letter-spacing:0px;word-spacing:0px;fill:#ffffff;stroke-width:4.8;stroke-linejoin:round;stroke-dasharray:4.8, 4.8;paint-order:stroke fill markers"
   d="m 40.276529,226.13294 c 3.936,0 6,-3.168 6,-9.072 0,-6 -2.04,-9.072 -5.976,-9.072 -3.912,0 -6.12,3.072 -6.12,9.072 0,5.904 2.184,9.072 6.096,9.072 z m 0.024,-8.04 c 0.984,0 1.2,-1.248 1.2,-2.136 0,-1.68 -0.216,-2.76 -1.2,-2.76 -1.104,0 -1.272,1.392 -1.272,2.76 0,0.888 0.264,2.136 1.272,2.136 z m -0.024,3.696 c -2.424,0 -3.6,-1.992 -3.6,-6.432 0,-4.296 1.2,-6.432 3.624,-6.432 2.448,0 3.72,2.136 3.72,6.432 -0.312,4.296 -1.296,6.432 -3.744,6.432 z m 9.839989,4.008 h 10.08 v -3.288 l -3.96,-0.12 v -14.088 h -1.44 c -0.792,0 -2.112,0.696 -3.504,1.536 l -0.24,2.184 2.952,-1.56 -0.6,11.952 -3.288,0.096 z m 14.519998,-3.384 -0.6,3.384 h 11.496 l -0.264,-3.408 h -5.712 c 5.904,-5.352 5.64,-6.936 5.64,-9.408 0,-3.048 -2.328,-4.992 -5.952,-4.992 -1.368,0 -2.88,0.384 -4.8,1.152 l -0.144,2.4 c 1.872,-1.056 3.504,-1.56 4.992,-1.56 2.112,0 3.528,1.296 3.528,3.144 0,0.576 -0.144,1.152 -0.432,1.728 -0.624,1.2 -1.536,2.592 -4.392,4.44 -1.632,1.056 -3.192,2.112 -3.36,3.12 z m 19.415999,3.72 c 4.368,0 6.84,-1.896 6.84,-5.664 0,-2.232 -0.816,-3.696 -3.6,-4.104 2.256,-0.816 3.192,-1.92 3.192,-3.84 0,-2.784 -2.232,-4.536 -5.832,-4.536 -1.392,0 -2.4,0.192 -4.2,0.696 l -0.552,1.68 c 1.776,-0.6 3.24,-0.816 4.536,-0.816 2.376,0 4.344,0.888 4.344,2.808 0,2.208 -1.632,2.88 -3.96,2.88 h -2.28 l -0.432,1.872 h 2.256 c 2.592,0 3.96,1.416 3.96,3.024 0,1.584 -0.744,2.448 -4.128,2.448 -0.624,0 -2.88,-0.192 -3.744,-0.528 l -1.08,3.216 c 1.656,0.576 3.216,0.864 4.68,0.864 z m 12.071985,-5.136 0.024,-0.024 5.424,-0.048 -0.312,4.872 h 3.72 l -0.408,-4.872 2.28,-0.024 v -2.448 l -2.472,0.072 -0.72,-8.856 0.024,-0.048 -0.048,-0.024 -0.096,-1.32 -1.2,0.072 -7.608,10.464 0.288,2.16 h 1.08 z m 1.512,-2.28 4.488,-6.744 -0.408,6.624 z m 17.66402,7.416 c 4.272,0 6.72,-2.184 6.72,-5.952 0,-3.936 -3.48,-5.088 -6.36,-5.088 h -2.328 l -0.24,-5.04 h 7.752 l -0.072,-1.752 -9.408,0.144 -0.384,8.904 c 1.896,-0.24 3.384,-0.384 4.632,-0.384 1.896,0 3.672,0.144 3.672,2.856 0,1.2 -1.08,2.688 -3.792,2.688 -1.68,0 -2.448,-0.288 -3.984,-1.128 l -0.816,4.008 c 1.632,0.504 3.144,0.744 4.608,0.744 z m 16.8,0 c 3.528,0 5.856,-2.352 5.856,-5.952 0,-3.672 -2.184,-5.952 -5.712,-5.952 -1.656,0 -2.928,0.384 -4.032,1.656 0.24,-4.416 1.872,-6.024 4.992,-6.024 h 3.6 v -1.872 h -3.696 c -4.416,0 -7.248,3.552 -7.248,9.072 0,5.904 2.208,9.072 6.24,9.072 z m 0,-3.12 c -2.112,0 -3.456,-1.248 -3.456,-2.832 0,-2.52 1.344,-4.08 3.456,-4.08 2.136,0 3.48,1.56 3.48,4.08 0,1.584 -1.344,2.832 -3.48,2.832 z m 14.18399,2.784 h 4.152 l 2.592,-17.16 -11.16,-0.288 -0.072,1.704 8.784,0.336 z m 16.84801,0.336 c 3.864,0 6.504,-1.872 6.24,-5.256 -0.168,-2.232 -1.584,-3.864 -3.864,-4.392 2.016,-0.504 2.976,-2.256 2.976,-3.96 0,-2.496 -1.872,-4.296 -5.352,-4.296 -3.48,0 -5.352,1.8 -5.352,4.296 0,1.704 0.96,3.456 2.976,3.96 -2.28,0.528 -3.648,2.16 -3.864,4.392 -0.336,3.384 2.376,5.256 6.24,5.256 z m 0.024,-2.376 c -2.256,0 -3.528,-1.44 -3.576,-2.856 -0.048,-1.512 1.296,-3.384 3.552,-3.408 2.28,-0.024 3.552,1.992 3.552,3.408 0,1.416 -1.272,2.856 -3.528,2.856 z m -0.024,-8.448 c -2.04,0 -3.24,-1.464 -3.24,-3.264 0,-1.752 1.2,-2.664 3.24,-2.664 2.016,0 3.24,0.912 3.24,2.664 0,1.8 -1.224,3.264 -3.24,3.264 z m 15.02398,10.8 c 4.416,0 7.152,-0.312 7.152,-9.048 0,-6.696 -2.184,-9.072 -6.24,-9.072 -3.528,0 -5.832,2.352 -5.832,5.952 0,3.672 2.184,5.928 5.688,5.928 1.68,0 2.784,-0.264 4.032,-0.648 -0.24,3.672 -1.608,3.744 -4.032,3.744 -2.544,0.024 -3.264,-0.216 -4.272,-0.576 l -0.552,3.24 c 1.464,0.312 2.208,0.48 4.056,0.48 z m 0.6,-8.568 c -2.136,0 -3.384,-1.488 -3.384,-3.984 0,-2.472 1.416,-4.008 3.504,-4.008 1.944,0 3.096,1.224 3.48,4.008 0.504,3.696 -0.744,3.984 -3.6,3.984 z"
   id="text9"
   aria-label="0123456789" /><path
   style="font-size:96px;line-height:1;font-family:OpenDyslexic;-inkscape-font-specification:OpenDyslexic;letter-spacing:-4px;word-spacing:-5px;stroke-width:4.8;stroke-linejoin:round;stroke-dasharray:4.8, 4.8;paint-order:stroke fill markers"
   d="m 157.46834,107.8695 c 7.68,0 14.592,-2.976 18.24,-9.216003 v 7.872003 h 9.6 l -5.472,-52.512003 h -6.816 l 0.192,5.568 c -3.456,-5.568 -8.736,-7.68 -16.32,-6.624 -5.472,0.768 -16.608,3.744 -20.16,23.616 -3.648,20.352 5.664,31.296003 20.736,31.296003 z m -1.152,-14.592003 c -11.328,0 -13.632,-5.664 -12.48,-14.208 1.824,-13.248 9.696,-18.048 15.072,-18.048 6.432,0 13.536,2.208 13.536,16.8 0,4.704 -0.672,15.456 -16.128,15.456 z"
   id="text7"
   aria-label="a" /><path
   style="font-size:20px;line-height:1;font-family:OpenDyslexic;-inkscape-font-specification:OpenDyslexic;letter-spacing:-4px;word-spacing:0px;stroke-width:4.8;stroke-linejoin:round;stroke-dasharray:4.8, 4.8;paint-order:stroke fill markers"
   d="m 23.682028,35.163987 c 5.74,0.04 7.48,-2.9 7.62,-8.76 0.14,-6.12 -2.98,-8.56 -7.62,-8.56 -4.64,0 -7.64,2.68 -7.64,8.56 0,5.86 2.38,8.72 7.64,8.76 z m 0,-4.22 c -3.24,0 -5.28,-0.92 -5.28,-4.32 0,-3.44 2.04,-6.96 5.28,-6.96 3.24,0 5.26,3.52 5.26,6.96 0,3.4 -2.02,4.32 -5.26,4.32 z m 13.019993,2.3 c 0.54,1.3 1.9,1.94 3.5,1.94 3.16,0 4.48,-2.82 4.48,-5.96 0,-3.3 -1.82,-5.32 -4.48,-5.4 -1.6,-0.04 -2.76,0.62 -3.5,1.92 l -0.36,-1.5 h -1.8 c 0.48,5.2 0.46,6.44 0.18,7.78 l -1.62,7.9 2.58,-0.16 z m 6.22,-4.4 c 0.08,2.12 -0.46,3.36 -2.36,3.36 -1.9,0 -3.34,-1.24 -3.34,-3.36 0,-2.12 1.58,-3.42 3.24,-3.42 1.66,0 2.38,1.3 2.46,3.42 z m 5.440005,0.3 8.66,-0.56 c -0.64,-3.62 -2.66,-5.12 -4.9,-5.3 -3.3,0 -5.44,2.66 -5.58,6.24 0,3.46 2.4,5.64 5.88,5.64 1.42,0 2.72,-0.28 4.02,-0.84 v -2.48 c -1.54,0.66 -2.48,0.82 -3.96,0.66 -2.82,-0.3 -4.12,-1.46 -4.12,-3.36 z m 6.66,-2.16 -6.4,0.62 c 0,-1.32 1.46,-2.84 3.5,-2.98 2.08,-0.14 2.7,1.14 2.9,2.36 z m 13.859999,1.44 c -0.2,-2.88 -1.56,-4.68 -4.06,-4.68 -1.52,0 -2.28,0.66 -3.22,1.1 l -0.34,-0.88 h -1.32 l -0.8,10.92 h 2.96 l -0.28,-6.08 c -0.08,-1.8 0.6,-3.36 2.8,-3.36 1.6,0 2.2,0.92 2.14,2.86 l -0.22,6.58 h 2.78 z m 3.30001,6.46 h 4.6 c 4.78,0 10.44,-1.32 9.46,-8.4 -0.56,-4.18 -3.08,-8.58 -9.46,-8.58 h -4.6 z m 5.04,-4.3 h -2.68 v -9.98 h 2.68 c 4.54,0 5.74,2.86 6.1,5.4 0.44,2.98 -0.4,4.58 -6.1,4.58 z m 12.600014,9.46 h 1.64 c 1.6,0 4.88,-1.3 5.62,-4.48 l 2.78,-11.88 h -1.92 l -2.34,7.62 -4.48,-7.62 h -1.9 l 4.96,10.14 c 1,2.06 -1.56,3.64 -3.1,3.64 h -1.26 z m 19.819991,-14.94 0.92,-1.2 c -1,-0.22 -2.2,-0.48 -3.54,-0.48 -3.46,0 -4.16,1.78 -4.16,3.24 0,2.62 2.44,3.22 3.34,3.36 1.4,0.28 2.62,0.68 2.62,1.32 0,1.14 -1.32,1.06 -2.02,1 -1.22,-0.1 -1.7,-0.22 -2.86,-0.66 l -1.96,2.22 c 0.88,0.66 1.12,1.26 4.78,1.26 3.02,0 4.56,-0.62 4.56,-3.38 0,-1.56 -0.58,-2.4 -3.88,-3.42 -1.74,-0.54 -3.06,-1.14 -3.08,-1.78 -0.02,-0.9 0.3,-1.64 2.88,-1.64 0.7,0.04 1.16,0 2.4,0.16 z m 3.68001,9.78 h 4.8 l -0.32,-2.22 h -2.38 c -0.2,-4.86 0.1,-9.1 0.64,-13.9 h -1.9 c -0.82,5.56 -1.08,13.9 -0.84,16.12 z m 8.74002,-5.74 8.66,-0.56 c -0.64,-3.62 -2.66,-5.12 -4.9,-5.3 -3.3,0 -5.44,2.66 -5.58,6.24 0,3.46 2.4,5.64 5.88,5.64 1.42,0 2.72,-0.28 4.02,-0.84 v -2.48 c -1.54,0.66 -2.48,0.82 -3.96,0.66 -2.82,-0.3 -4.12,-1.46 -4.12,-3.36 z m 6.66,-2.16 -6.4,0.62 c 0,-1.32 1.46,-2.84 3.5,-2.98 2.08,-0.14 2.7,1.14 2.9,2.36 z m 4.12,7.9 h 2.98 l 3.06,-4.12 2.66,4.12 h 3 l -4.26,-6.02 3.84,-5.18 h -2.22 l -2.82,3.5 -2.48,-3.5 h -2.32 l 3.38,5.22 z m 13.96,0 h 2.64 c -0.6,-3.84 -0.6,-7.72 -0.46,-11.02 h -1.6 c 0,4.44 -0.32,7.18 -0.58,11.02 z m -0.3,-14.18 h 3.3 l -0.48,-3.28 h -2.12 z m 12.50001,4.84 v -1.72 c -0.42,-0.14 -1.54,-0.26 -2.5,-0.24 -3.38,0.08 -4.8,1.88 -4.8,5.84 0,3.52 1.26,5.32 5.4,5.6 1.22,0.08 2.48,-0.06 3.42,-0.62 l -1.88,-2.04 c -2.1,1.04 -4.72,-0.34 -4.92,-2.94 0,-2.98 1.24,-4.16 3.18,-4.18 0.56,0 1.46,0.1 2.1,0.3 z"
   id="text1"
   aria-label="OpenDyslexic" /><path
   style="font-style:italic;font-weight:800;font-size:20px;line-height:1;font-family:OpenDyslexic;-inkscape-font-specification:'OpenDyslexic Ultra-Bold Italic';letter-spacing:-2px;word-spacing:-5px;stroke-width:4.8;stroke-linejoin:round;stroke-dasharray:4.8, 4.8;paint-order:stroke fill markers"
   d="m 16.042013,100.38998 h 4.22 l 1.5,-2.599997 h 6.26 l -0.08,2.599997 h 4.38 l -2.14,-17.039997 h -2.82 z m 7.74,-6.299997 3.92,-6.86 0.32,6.86 z m 15.339998,6.659997 c 1.28,0 2.48,-0.34 3.5,-1.019997 l -0.3,0.659997 h 2.96 l 1.76,-11.279997 h -2.32 l -0.26,0.74 c -0.6,-0.42 -1.7,-0.82 -2.6,-0.84 -2.86,-0.06 -5.06,2.64 -6.1,6.04 -1.06,3.44 -0.04,5.699997 3.36,5.699997 z m 0.46,-3.699997 c -2.42,0 -2.64,-0.1 -1.46,-2.32 1.58,-2.96 2.6,-3.36 3.5,-3.36 2.36,0 1.92,1.28 1.96,2.82 0.02,2.1 -0.98,2.86 -4,2.86 z m 20.079982,3.339997 h 6.46 c 3.58,0 6.44,-0.419997 7.52,-4.879997 0.58,-2.38 -0.16,-3.58 -1.82,-4.34 1.36,-0.64 2.04,-1.7 2.44,-3.18 0.76,-2.86 -1.02,-4.68 -4.6,-4.68 h -5.42 z m 7.2,-4.359997 h -2.68 l 0.86,-3.24 h 3 c 1.08,0 1.66,0.12 2.04,0.44 0.5,0.42 0.38,0.82 0.32,1.04 -0.34,1.32 -1.18,1.76 -3.54,1.76 z m 1.4,-6.16 h -2.44 l 1.06,-3.96 h 2.74 c 1.66,0 2.24,0.58 1.86,1.96 -0.32,1.24 -1.42,2 -3.22,2 z m 11.200018,10.819997 c 3.66,-0.34 5.88,-1.919997 6.58,-5.619997 0.68,-3.46 -0.78,-6.36 -3.68,-6.3 -1.48,0.04 -2.96,0.62 -3.16,1.32 l 1.82,-6.74 -3.08,-0.18 c -1.36,7.46 -3.02,14.12 -2.84,15.24 0.18,1.879997 1.96,2.499997 4.36,2.279997 z m 1.12,-3.819997 c -2.08,0.02 -2.44,-0.2 -1.74,-2.12 0.68,-1.88 1.96,-3.22 3.5,-3.22 1.46,0 1.96,0.92 1.5,2.74 -0.68,1.58 -1.76,2.48 -3.26,2.6 z m 34.739979,-9.52 1.42,-3.74 c -1.76,-0.32 -3.74,-0.48 -4.96,-0.42 -3.66,0.18 -7.78,2.38 -10.2,8.1 -2.060004,4.9 -0.12,9.099997 3.24,9.099997 0.04,0 2.54,-0.02 7.36,0 l 1.08,-5.839997 c -1.6,0.72 -3.24,0.94 -4.46,0.94 -3.6,0 -4.04,-1.26 -3.1,-4 0.8,-2.3 2.54,-4.18 5.44,-4.5 1.42,-0.16 2.46,-0.04 4.18,0.36 z m 4.14002,13.119997 c 1.34,0 2.1,-0.08 3.84,-0.899997 l -1.78,-2.76 c -2.48,1.64 -4.06,0.78 -3.58,-1.76 0.72,-2.62 1.38,-3.76 3.84,-3.88 0.8,-0.04 1.5,-0.04 2.56,0.32 l 0.38,-2.24 c -0.06,-0.26 -1.3,-0.6 -2.14,-0.64 -3.82,-0.18 -6.54,2.08 -7.6,6.1 -0.96,3.52 0.36,5.759997 4.48,5.759997 z"
   id="text4"
   aria-label="Aa Bb Cc" /><path
   style="font-size:20px;line-height:1;font-family:OpenDyslexic;-inkscape-font-specification:OpenDyslexic;letter-spacing:-4px;word-spacing:-5px;stroke-width:4.8;stroke-linejoin:round;stroke-dasharray:4.8, 4.8;paint-order:stroke fill markers"
   d="m 53.948479,141.19482 h 3.02 l 0.86,-2.72 h 7.42 l 0.64,2.72 h 3.18 l -6.48,-17 h -2.14 z m 4.54,-5.34 3,-8.9 3.06,8.9 z m 20.739994,-4.02 v -1.72 c -0.42,-0.14 -1.54,-0.26 -2.5,-0.24 -3.38,0.08 -4.8,1.88 -4.8,5.84 0,3.52 1.26,5.32 5.4,5.6 1.22,0.08 2.48,-0.06 3.42,-0.62 l -1.88,-2.04 c -2.1,1.04 -4.72,-0.34 -4.92,-2.94 0,-2.98 1.24,-4.16 3.18,-4.18 0.56,0 1.46,0.1 2.1,0.3 z m 10.939995,0 v -1.72 c -0.42,-0.14 -1.54,-0.26 -2.5,-0.24 -3.38,0.08 -4.8,1.88 -4.8,5.84 0,3.52 1.26,5.32 5.4,5.6 1.22,0.08 2.48,-0.06 3.42,-0.62 l -1.88,-2.04 c -2.1,1.04 -4.72,-0.34 -4.92,-2.94 0,-2.98 1.24,-4.16 3.18,-4.18 0.56,0 1.46,0.1 2.1,0.3 z m 5.459995,3.6 8.659997,-0.56 c -0.64,-3.62 -2.66,-5.12 -4.899997,-5.3 -3.3,0 -5.44,2.66 -5.58,6.24 0,3.46 2.4,5.64 5.88,5.64 1.419997,0 2.719997,-0.28 4.019997,-0.84 v -2.48 c -1.54,0.66 -2.48,0.82 -3.959997,0.66 -2.82,-0.3 -4.12,-1.46 -4.12,-3.36 z m 6.659997,-2.16 -6.399997,0.62 c 0,-1.32 1.46,-2.84 3.5,-2.98 2.079997,-0.14 2.699997,1.14 2.899997,2.36 z m 11.78,-1.88 0.92,-1.2 c -1,-0.22 -2.2,-0.48 -3.54,-0.48 -3.46,0 -4.16,1.78 -4.16,3.24 0,2.62 2.44,3.22 3.34,3.36 1.4,0.28 2.62,0.68 2.62,1.32 0,1.14 -1.32,1.06 -2.02,1 -1.22,-0.1 -1.7,-0.22 -2.86,-0.66 l -1.96,2.22 c 0.88,0.66 1.12,1.26 4.78,1.26 3.02,0 4.56,-0.62 4.56,-3.38 0,-1.56 -0.58,-2.4 -3.88,-3.42 -1.74,-0.54 -3.06,-1.14 -3.08,-1.78 -0.02,-0.9 0.3,-1.64 2.88,-1.64 0.7,0.04 1.16,0 2.4,0.16 z m 11.46002,0 0.92,-1.2 c -1,-0.22 -2.2,-0.48 -3.54,-0.48 -3.46,0 -4.16,1.78 -4.16,3.24 0,2.62 2.44,3.22 3.34,3.36 1.4,0.28 2.62,0.68 2.62,1.32 0,1.14 -1.32,1.06 -2.02,1 -1.22,-0.1 -1.7,-0.22 -2.86,-0.66 l -1.96,2.22 c 0.88,0.66 1.12,1.26 4.78,1.26 3.02,0 4.56,-0.62 4.56,-3.38 0,-1.56 -0.58,-2.4 -3.88,-3.42 -1.74,-0.54 -3.06,-1.14 -3.08,-1.78 -0.02,-0.9 0.3,-1.64 2.88,-1.64 0.7,0.04 1.16,0 2.4,0.16 z m 3.94001,9.78 h 2.64 c -0.6,-3.84 -0.6,-7.72 -0.46,-11.02 h -1.6 c 0,4.44 -0.32,7.18 -0.58,11.02 z m -0.3,-14.18 h 3.3 l -0.48,-3.28 h -2.12 z m 10.95999,14.46 c 2.66,0 5.3,-2.7 5.3,-6.14 0,-2.88 -2.34,-5.34 -5.3,-5.26 -2.16,0.06 -3.08,2.06 -3.08,0.56 v -6.44 h -2.68 c 0.6,7.26 0.7,14.12 1.12,15.02 0.52,1.44 1.78,2.26 4.64,2.26 z m 0.42,-3.2 c -2.6,0 -3.04,-0.82 -3.04,-2.86 0,-2.12 1.14,-3.58 3.04,-3.58 1.92,0 2.92,1.52 2.92,3.5 0,1.64 -1.32,2.82 -2.92,2.94 z m 7.13999,2.92 h 2.64 c -0.6,-3.84 -0.6,-7.72 -0.46,-11.02 h -1.6 c 0,4.44 -0.32,7.18 -0.58,11.02 z m -0.3,-14.18 h 3.3 l -0.48,-3.28 h -2.12 z m 5.07999,14.18 h 4.8 l -0.32,-2.22 h -2.38 c -0.2,-4.86 0.1,-9.1 0.64,-13.9 h -1.9 c -0.82,5.56 -1.08,13.9 -0.84,16.12 z m 7.06002,0 h 2.64 c -0.6,-3.84 -0.6,-7.72 -0.46,-11.02 h -1.6 c 0,4.44 -0.32,7.18 -0.58,11.02 z m -0.3,-14.18 h 3.3 l -0.48,-3.28 h -2.12 z m 8.09999,14.18 c 0.94,0 4.46,0 5.2,-0.04 l -0.38,-2.56 c -3.18,-0.08 -3.24,-0.04 -3.18,-1.82 l 0.2,-5.18 h 3.38 l -0.36,-1.34 h -2.98 l 0.14,-3.8 -2.08,1.2 -0.2,2.6 h -2.06 l -0.58,1.34 h 2.56 c -0.3,4.54 -0.42,8.22 -0.42,8.6 0,0.14 0.08,1 0.76,1 z m 7.94,5.16 h 1.64 c 1.6,0 4.88,-1.3 5.62,-4.48 l 2.78,-11.88 h -1.92 l -2.34,7.62 -4.48,-7.62 h -1.9 l 4.96,10.14 c 1,2.06 -1.56,3.64 -3.1,3.64 h -1.26 z"
   id="text5"
   aria-label="Accessibility" /></svg>
